<svg width="19" height="18" viewBox="0 0 19 18" fill="none" xmlns="http://www.w3.org/2000/svg">
<g id="Heart">
<path id="HeartIcon" d="M17.5 5.9184C17.5 7.0359 17.0223 8.25974 16.248 9.49721C15.478 10.728 14.443 11.9273 13.3948 12.9851C12.3485 14.041 11.3003 14.9446 10.5128 15.5847C10.1194 15.9044 9.79194 16.1577 9.56353 16.3305C9.54141 16.3472 9.52023 16.3632 9.5 16.3784C9.47978 16.3632 9.45859 16.3472 9.43647 16.3305C9.20806 16.1577 8.88063 15.9044 8.48724 15.5847C7.69969 14.9446 6.65149 14.041 5.60516 12.9851C4.557 11.9273 3.52205 10.728 2.752 9.49721C1.97774 8.25974 1.5 7.0359 1.5 5.9184C1.5 4.25696 1.99852 3.13515 2.68298 2.44561C3.36874 1.75476 4.28641 1.45102 5.22042 1.50637C7.08736 1.617 9 3.1669 9 5.9184H9.5H10C10 3.1669 11.9126 1.61701 13.7796 1.50637C14.7136 1.45102 15.6313 1.75477 16.317 2.44561C17.0015 3.13515 17.5 4.25696 17.5 5.9184Z" stroke="black"/>
</g>
</svg>
